<svg xmlns="http://www.w3.org/2000/svg" version="1.1" xmlns:xlink="http://www.w3.org/1999/xlink" xmlns:svgjs="http://svgjs.dev/svgjs" width="2000" height="2250" viewBox="0 0 2000 2250"><g transform="matrix(1,0,0,1,3.410605131648481e-13,0)"><svg viewBox="0 0 320 360" data-background-color="#ffffff" preserveAspectRatio="xMidYMid meet" height="2250" width="2000" xmlns="http://www.w3.org/2000/svg" xmlns:xlink="http://www.w3.org/1999/xlink"><g id="tight-bounds" transform="matrix(1,0,0,1,-5.684341886080802e-14,0)"><svg viewBox="0 0 320 360" height="360" width="320"><g><svg></svg></g><g><svg viewBox="0 0 320 360" height="360" width="320"><g><path xmlns="http://www.w3.org/2000/svg" d="M85.508 32.884c0-1.117 0.558-2.233 1.675-2.233 1.117 0 2.233 0.558 2.234 2.233 0.558 0 1.675 0 2.233-0.558 2.233 0 4.467-0.558 6.141 0 1.675 0.558 2.792 0.558 4.467 1.117 1.675 0.558 2.792 0 3.908-0.559 2.233-0.558 3.908-1.675 6.141-2.233 1.117-0.558 1.675-0.558 2.792-0.558 1.117-0.558 2.233-0.558 3.908-1.117 2.792-0.558 5.583-1.117 7.817-2.233 2.233-1.117 4.467-1.117 6.699-1.675 1.117 0 1.675-0.558 2.792-1.117 0.558 0 0.558-0.558 1.116-1.116 1.117-0.558 1.675-1.117 2.792-0.559 0.558 0.558 1.675 0.558 2.233 0h0.559c3.35 0 6.7-0.558 10.608 0 0.558 0 1.117 0 1.116 0 1.675-1.117 3.908-1.117 6.142-1.116 0.558 0 1.675 0 2.233 0h0.558c2.233 0 4.467 0 6.142 0.558 1.675 0 2.792 0.558 4.466 1.117 1.675 0 2.792 0 4.467 0.558 1.117 0 2.233 0 3.35 0 0.558 0 1.117 0 1.116 0 2.233 0.558 4.467 0.558 6.7 0.558 1.675 0.558 3.35 1.117 5.583 1.117 0.558 0 1.117 0 1.675 0 0.558 0 1.117 0.558 1.675 0.558l0.558 0.559c2.233 0 3.908 1.117 6.142 1.116 0.558 0 1.675 0 2.233 0.559 1.675 1.117 3.908 1.675 6.141 1.675 1.117 0 1.675 0.558 2.234 1.116 1.675 0.558 2.792 1.117 4.466 1.675 1.117 0.558 2.233 0 3.35 0.558 1.675 0.558 3.908 1.117 5.583 2.792 1.117 1.117 2.233 1.117 3.908 2.233 0.558 0 1.117 0.558 1.675 1.117 1.675 1.117 3.35 2.233 5.025 2.791 0.558 0 1.117 0.558 1.675 0.559 1.675 1.117 3.35 2.792 5.583 3.908 1.117 0.558 1.675 1.117 2.792 1.675h0.558c1.675 1.675 3.908 2.792 5.583 4.466 1.675 1.675 2.792 2.792 5.025 3.909 0 0 0 0 0 0.558 0.558 1.117 1.117 1.675 2.233 2.233 1.117 0.558 1.675 1.117 2.234 1.675 1.675 1.117 3.35 2.233 4.466 3.35 0.558 0.558 1.117 1.117 2.233 2.233 0.558 0.558 1.117 1.117 1.675 1.117 2.233 0.558 3.35 2.233 5.025 3.908 1.117 1.117 2.792 2.792 3.908 3.908 0.558 0.558 1.117 1.675 1.675 2.792 1.117 3.35 2.792 6.7 4.467 9.491 0 0 0 0.558 0.558 1.117v0.558c1.117 1.117 1.675 2.792 2.792 3.908 0.558 0.558 0.558 1.117 1.116 1.675 1.117 1.675 1.675 3.908 2.792 5.583 1.675 2.792 2.792 5.583 3.908 8.375v0.558c0.558 1.117 1.117 2.233 1.675 3.908 0 1.117 1.117 2.233 1.675 3.909 0.558 2.792 2.233 5.583 2.791 8.933 0 0.558 0.558 1.117 0.559 2.233 0.558 1.675 1.117 3.35 1.675 5.025 0 0.558 0.558 1.117 1.116 1.675 1.117 1.117 1.117 2.233 1.117 3.35-0.558 2.233 0 4.467 0.558 6.699 0 0.558 0 1.117 0 2.234 0.558 2.233 1.117 5.025 1.117 7.258 0 0.558 0 1.675 0 2.233 0 1.675 0.558 3.35 1.675 5.025 0 0.558 0.558 0.558 0.558 0.558 0.558 0.558 1.117 1.675 1.675 2.233 0.558 0.558 0.558 0.558 1.117 1.117 1.117 1.117 1.675 2.233 1.675 3.908 0 0.558-0.558 1.675-0.559 2.233 0 0.558 0 1.675 0.559 2.234 0.558 0.558 0.558 1.117 0.558 1.675 0 0.558-0.558 1.117-1.117 1.116v0c-0.558 1.675-2.792 2.233-3.35 3.908-0.558 2.233-1.117 4.467-1.674 6.7-0.558 1.675-0.558 2.792-0.559 4.467 0 1.675-0.558 2.792-0.558 4.466-0.558 2.233-1.117 4.467-1.675 6.7 0 1.117-0.558 2.233-0.558 3.35 0.558 0.558 1.117 1.117 1.675 1.116 1.117 1.117 2.233 2.233 3.349 3.35 0.558 0.558 0.558 1.117 0 1.117-0.558 0.558-1.117 0.558-1.674 0.558-0.558-0.558-1.675-1.117-2.234-1.116-0.558-0.558-1.675-1.117-2.791-0.559 0 1.117-0.558 2.233-0.559 2.792-0.558 1.117-1.117 2.792-1.116 3.908-0.558 2.233-1.675 3.908-2.233 6.142-1.117 2.792-2.233 5.025-3.35 7.258-0.558 1.117-1.117 2.233-1.675 3.35v0c0 1.675-1.675 3.35-2.234 5.024-1.117 2.233-2.233 4.467-3.349 7.258-0.558 1.117-1.117 2.233-1.675 2.792-1.117 2.792-2.233 5.025-3.909 7.258-1.117 1.675-2.233 2.792-3.349 3.35-1.117 1.117-2.233 2.233-3.35 3.35-0.558 0.558-1.117 1.117-1.675 1.675-0.558 0.558-0.558 0.558-1.117 1.116-1.117 1.675-2.792 2.792-3.908 4.467-1.117 1.117-1.675 2.233-3.35 3.35-1.117 1.117-2.233 2.792-3.908 3.35-0.558 0.558-1.117 1.675-1.675 2.233-0.558 0.558-1.117 1.675-1.675 2.233 0 1.117 0.558 2.233 0.558 2.792 0 1.675-1.675 2.233-2.791 1.116-1.675-1.117-1.675-1.117-3.35 0-1.675 1.117-3.35 2.792-5.583 3.35-0.558 0-0.558 0.558-1.117 0.559-1.117 0.558-1.675 1.675-2.792 2.233-1.117 1.117-2.792 1.675-3.908 2.791-0.558 0.558-1.117 0.558-1.675 1.117-1.675 1.117-3.35 1.675-5.024 3.35-0.558 0.558-1.117 0.558-1.675 1.117 0 0.558 0 0.558 0 1.116 0 1.117-1.117 2.233-2.792 1.675-1.675-0.558-2.792 0-4.466 0-1.675 0.558-3.35 1.675-5.025 2.233-0.558 0-1.117 0.558-1.675 1.117-1.675 1.117-3.35 1.675-5.025 2.233-1.117 0-2.233 1.117-3.35 1.117-0.558 0-1.117 0.558-1.675 0.558h-0.558c-2.233 1.675-4.467 2.792-6.7 4.467-0.558 0-0.558 0.558-1.117 1.116-0.558 1.117-1.117 1.675-2.233 1.675-2.792 0-3.908 2.233-3.35 4.467 0 0.558 0.558 1.117 0.559 1.675 0.558 1.117 0 2.233-0.559 2.791-0.558 0.558-2.233 0.558-2.791-0.558-1.117-1.117-1.675-2.233-2.234-3.908-0.558-1.117-1.675-2.233-2.791-2.792-1.117-0.558-2.233-0.558-3.35 0-0.558 0-0.558 0.558-1.117 0.558-1.117 1.117-2.792 1.675-4.466 1.117-0.558 0-1.675 0-1.675 0.558-0.558 0.558-0.558 1.675 0 2.234 1.117 1.117 0.558 2.233 0.558 3.908 0 2.233-1.675 3.35-3.908 2.233-0.558-0.558-1.117-0.558-1.675-1.117-0.558 0-0.558-0.558-0.558-1.116-0.558-0.558-0.558-1.675-1.117-2.792-1.117 0.558-2.233 0.558-3.35 1.117-0.558 0-1.117 0.558-1.675 0.558-1.675 0-2.233 0-2.791-1.675-0.558-1.675-1.675-1.675-2.792-2.233-2.233-0.558-5.025-0.558-7.258-1.675h-0.558c-2.233-1.675-4.467-1.675-7.258-1.675-1.675 0-3.35 0.558-5.025 0.558-1.675 0-2.792 0.558-3.908 1.675-0.558 0.558-1.117 1.117-1.675 1.117-0.558-0.558-0.558-1.117-1.117-1.675v-0.558c0-0.558-0.558-1.117-1.116-0.559-1.117 0.558-2.233-0.558-3.35-1.116-0.558-0.558-1.675-1.675-1.675-2.792-0.558-0.558-1.117-1.117-1.675-1.116-1.117 0-2.792-0.558-3.908-0.559-0.558 0-1.117 0-1.117-0.558-0.558-0.558-1.117-0.558-2.233-0.558-0.558 0-0.558-0.558-1.117-0.559 1.117 1.117 1.675 2.233 2.233 3.35 0 0.558 0.558 0.558 0.559 1.117 0.558 1.117 0 1.675-1.675 1.675-1.117 0-1.117 0-1.675 0.558 0 1.117 0 1.675 0 2.792 0 0.558 0 1.117-1.117 1.675 0 0-0.558 0-0.558 0.558-0.558 0.558-0.558 1.117 0 1.675 1.675 1.117 2.792 1.675 4.466 2.233 1.675 0 1.675 1.117 2.234 2.233 0.558 1.117 0 1.675-0.559 2.792-1.117 1.117-2.233 2.233-3.35 3.35-1.675 0.558-2.792 2.233-4.466 2.233-1.117 0-2.233-0.558-2.792-1.675-0.558-2.792-0.558-5.025 0.559-7.816 0-0.558 0.558-1.117 0-1.675-5.025 0-5.025-1.117-5.025-1.675 0-1.117 0.558-1.675 0.558-2.792 0.558-1.117 0-1.675-1.675-2.233-0.558 0-1.117 0-1.675 0-0.558 0-0.558-0.558-1.675-0.558 1.117-0.558 1.675-0.558 2.792-1.117-0.558-2.233-1.117-3.908-2.792-5.025-0.558-0.558-1.117-1.117-1.116-2.233 0-1.675-1.117-2.792-1.675-3.908-1.117-1.675-3.35-2.233-5.025-2.233-1.675-0.558-2.792-0.558-4.467-1.117-1.675-0.558-3.35-2.233-5.024-2.792-0.558-0.558-1.117-1.117-2.234-1.674-2.233-1.117-3.908-2.792-5.583-4.467-1.117-0.558-1.675-1.675-2.791-2.233-1.117-1.117-1.675-2.233-2.792-2.792-1.117-1.117-2.233-2.233-3.908-3.35-1.675-1.117-2.792-2.792-4.467-4.466-1.117-1.675-2.792-2.792-4.466-3.908-0.558 0-1.117 0-1.675 0-0.558 0-1.117 0.558-1.675 0.558-1.675 0.558-2.792 1.675-4.467 2.233 0.558-0.558 0.558-0.558 0-1.675-0.558-0.558-1.117-1.117-1.674-1.116-1.117 0-2.233 0-3.35 0-2.233 0-4.467 0.558-6.7 0.558-1.675 0-3.908 0.558-5.583 1.117 0.558 1.117 0.558 1.675 1.116 2.791-1.117 0.558-2.233 0.558-3.35 0.558-0.558 0-1.675 0.558-2.233 1.117-0.558 0-0.558 0.558-1.116 0-1.117-0.558-2.233 0-3.35 0.558h-0.559c0 0 0-0.558 0.559-0.558 0.558-0.558 1.117-1.117 1.675-1.675 0.558-0.558 1.117-0.558 2.233-1.117-0.558-0.558-0.558-1.117-0.558-1.116-0.558-0.558-1.117-0.558-1.675 0-0.558 0.558-1.117 1.117-1.675 1.675-0.558 0.558-1.117 0.558-1.675 0-0.558-0.558-0.558-1.117 0-1.675 0-0.558 0.558-1.117 1.116-1.675 0.558-0.558 0.558-1.117 1.117-1.675-1.117-1.117-1.675-2.233-2.792-2.792-1.675-1.117-3.35-2.792-4.466-4.466-1.117-2.233-2.792-3.908-5.025-5.025-0.558-0.558-1.117-1.117-1.675-1.675-0.558-0.558-0.558-0.558-1.116-1.117-1.675 0.558-2.792 1.675-4.467 2.234-0.558 0-0.558 0.558-1.117 1.116-0.558 1.117-1.675 1.117-2.791 1.117-0.558 0-1.117-0.558-0.558-1.117 0.558-1.117 1.117-2.233 2.791-1.675 0 0 0.558 0 0.558-0.558 1.117-1.117 2.233-2.792 3.909-3.908-0.558-1.675-1.675-2.792-2.234-3.908-0.558-0.558-0.558-1.117-0.558-2.234 0-0.558 0-0.558-0.558-1.116 0 0-0.558 0-1.117 0.558-0.558 0.558-1.675 1.117-2.791 0 0-0.558 0-1.117 0.558-1.675l0.558-0.558c1.675-0.558 1.675-2.233 1.675-3.908v-0.559c-0.558-1.117-0.558-1.675 0.558-2.791 1.675-1.117 3.35-3.35 3.909-5.025 0.558-1.117 1.675-1.675 2.791-2.792 1.117-1.117 2.233-2.233 2.792-3.908h0.558c2.233 0.558 2.792-1.117 3.908-2.791 0-0.558 0-1.117 0.559-1.117 1.117-1.117 1.117-2.233 0.558-3.908 0-0.558-0.558-1.675-0.558-2.233 0-0.558 0-0.558-0.559-1.117-1.675-1.117-1.675-2.233 0-3.35 1.117-0.558 1.117-1.675 1.675-2.233 0.558-1.117 0.558-2.233 0.559-3.908-0.558-1.675-0.558-3.908-1.117-5.583-0.558-2.233-1.117-5.025-1.675-7.259 0-0.558 0-0.558 0-1.116 0-1.675 0-2.792-0.558-4.467-0.558-0.558-0.558-1.675-0.559-2.233-0.558-1.675-1.117-2.792-2.791-3.35-1.675-1.117-3.908-1.675-5.583-2.791-0.558-0.558-1.117 0-1.675 0.558-0.558 1.117-1.675 2.233-2.234 3.35-0.558 0.558-1.117 1.675-1.675 2.791-1.117 1.117-3.35 2.233-5.024 0.559-0.558-1.117-1.117-1.675 0-2.792 1.117-1.675 2.233-3.35 3.908-4.466 0.558-0.558 1.117-1.675 1.675-2.234 0.558-1.117 0.558-2.233 0.558-3.35-0.558-2.233-1.117-4.467-1.117-7.258 0-2.792 0-5.025 0.559-7.816 0.558-1.117 0.558-2.792 1.116-3.908 0-0.558 0.558-1.675 1.117-2.233 1.117-1.117 2.233-2.233 2.792-3.909 0.558-1.675 1.675-3.35 1.675-5.024 0-0.558 0.558-1.117 0.558-1.675 0-0.558 0.558-1.675 0.558-2.234-0.558-1.675 0-2.792 0.558-3.908 0.558-1.117 1.117-2.792 1.675-3.908 1.117-2.233 1.117-5.025 3.35-7.258 0.558-1.117 1.117-2.233 1.675-3.35 0.558-2.233 1.675-3.908 2.792-5.583 0.558-0.558 0.558-0.558 0.558-1.117 0.558-1.675 1.675-3.35 2.792-5.025 1.117-1.675 1.117-3.35 1.675-5.024 0-0.558 0-1.117 0.558-1.675 1.675-1.675 1.117-3.908 0.558-6.142-1.117-2.792-1.675-5.583-1.116-8.374 0-0.558 0-1.117 0.558-1.117 0.558-1.117 0.558-1.675 1.117-2.792v-0.558c1.117-1.117 2.233-2.792 3.908-3.35 2.233-1.117 4.467-1.675 7.258-2.233 2.233 0 4.467-1.117 6.141-3.35 0-0.558 0.558-0.558 1.117-1.117l0.558-0.558c0.558-1.117 1.117-1.675 1.675-2.233 1.117-1.117 2.233-2.792 3.35-3.908 1.117-1.117 2.233-2.792 3.908-4.467l0.559-0.558c1.117-1.117 2.233-2.233 3.349-2.792 1.117-1.117 2.233-2.233 3.35-3.35 1.117-1.117 1.675-2.233 2.792-3.35 1.117-0.558 2.233-1.675 3.35-2.791 1.117-1.117 2.233-2.233 2.791-2.792 1.117-1.117 2.792-2.233 3.909-2.791 1.117-0.558 2.233-1.117 2.791-2.792 0.558-1.675 1.117-2.792 1.675-4.466 0-1.117 0.558-2.233 1.117-3.35 0.558 0 1.117 0 2.233-0.558-0.558-0.558-1.117-0.558-1.117-1.117 0-0.558 0.558-1.117 0.559-1.117 0-0.558 0.558-1.117 0.558-1.675 0 0 0.558 0 0.558-0.558 0 0 0.558 0 0.559-0.558-1.117 0.558-1.675 0-2.234-0.559 0.558 0.558 1.117 0.558 2.234 1.117 0 0 0.558 0 0.558-0.558 0-0.558 0-1.117 0-1.117 0 0-0.558 0-1.117 0-0.558 0-1.117 0.558-1.675 0.558zM182.097 295.292c0-0.558-0.558-0.558-0.559-1.117-0.558-1.117 0-1.675 0.559-2.233 0.558-0.558 1.117-0.558 2.233-0.558 1.117 0.558 1.675 1.117 1.675 2.233 0 0.558 0 1.675 0 2.233 0.558 2.233 0.558 2.233 2.791 2.233 1.117 0 2.233 0 3.35 0 2.233-0.558 4.467-1.675 6.7-2.233 2.233-0.558 4.467-1.117 6.7-1.675 0.558 0 1.117 0 2.233 0 2.233 0.558 3.908 0 5.583-1.117 0.558-0.558 1.675-0.558 2.233-1.116 1.117-0.558 2.233-0.558 3.35-1.117 2.792-1.675 5.583-2.792 7.817-4.466 1.675-1.117 3.35-2.233 5.024-3.35 1.675-1.117 3.35-2.233 5.025-3.35 1.117-0.558 2.792-1.675 3.908-2.792 2.233-1.675 3.908-3.35 6.142-4.466 1.117-0.558 1.675-1.117 2.233-1.675 1.117-0.558 1.675-1.675 2.792-2.233 0.558-0.558 1.117-1.117 2.233-1.675 0.558-0.558 0.558-0.558 0.558-1.117 1.675-1.117 3.35-3.35 4.467-5.025 1.117-1.117 2.233-2.233 3.35-3.908 1.675-1.675 2.792-3.908 4.466-6.141 1.117-1.117 2.233-2.792 2.792-3.909 1.117-2.233 2.233-4.467 3.908-6.141v-0.558c1.117-2.233 2.233-4.467 3.35-6.7 1.675-2.792 2.792-6.141 4.466-8.933 0.558-1.117 1.117-2.233 1.117-3.35 1.117-2.233 1.675-4.467 2.233-6.7 0-0.558 0-0.558 0.559-1.116 1.675-3.35 2.792-6.7 3.349-10.608 0.558-2.233 1.117-4.467 1.675-6.7 1.117-3.35 1.117-6.141 1.675-9.491 0.558-2.233 0.558-5.025 0.559-7.258 0.558-3.35 0.558-7.258 0-10.608 0-2.792-0.558-6.141-0.559-8.933 0-2.792-0.558-5.025-1.116-7.817-0.558-2.792-1.117-5.025-1.675-7.816-1.117-2.233-1.675-4.467-2.234-7.258-0.558-2.233-1.675-3.908-1.674-6.142 0-1.675-0.558-3.35-2.234-3.908-1.675-0.558-2.792-1.117-4.466-2.233-3.35-2.233-5.025-5.025-4.467-8.375 0-1.675 0.558-3.908 1.117-5.583 0.558-1.675 1.117-3.35 0-4.467-0.558-1.675-1.675-2.792-2.233-3.908-1.117-1.675-1.675-2.792-2.792-3.908-1.117-2.233-2.233-4.467-3.908-6.141-2.233-2.792-3.908-5.583-6.7-7.817l-0.558-0.558c-1.675-2.233-3.35-4.467-5.583-6.142-1.117-1.117-2.233-2.233-3.35-2.791-0.558-0.558-1.117-1.117-2.233-1.675-1.675-1.117-3.35-1.675-4.467-2.792-1.675-1.675-3.908-2.792-5.583-3.908 0 0-0.558 0-0.558-0.558-2.233-1.117-3.908-1.675-6.142-2.792-2.233-1.117-4.467-1.675-6.7-1.675-0.558 0-0.558 0-1.116 0-0.558-0.558-1.675-0.558-2.233-0.558-0.558 0-0.558 0-1.117 0-1.117-0.558-2.792 0-3.908 0-2.233 0.558-4.467 0.558-6.7-0.558-2.792-1.117-5.025-2.233-7.258-3.35-1.675-1.117-2.792-2.233-4.467-3.35-3.35-2.792-6.7-6.141-10.608-8.933 0.558-2.792-0.558-3.35-2.791-3.35-1.117 0-2.233 0.558-3.35 1.117-0.558 0.558-0.558 0.558-1.117 1.116-1.675 1.117-2.792 2.792-4.466 3.909-2.792 1.675-3.908 1.117-6.142 0-0.558-0.558-1.117-1.117-1.675-1.675-1.117-1.117-2.233-2.792-2.791-3.909-1.117-2.233-3.35-2.233-5.583-2.233-1.117 0-2.792 0.558-3.908 0.558-2.233 0-4.467 1.117-5.584 2.792-1.117 1.675-2.233 3.35-3.908 5.025-0.558 0.558-1.675 1.117-2.233 2.233-1.117 1.117-2.233 1.117-3.35 0-0.558-0.558-1.117-0.558-1.675-1.117-0.558 0.558-1.117 1.117-1.117 1.675-0.558 1.117-1.117 2.233-1.674 3.909-0.558 1.675-1.675 3.35-2.792 4.466-0.558 0.558-0.558 0.558-1.117 1.117-0.558 1.117-2.233 1.675-3.35 1.675-1.117 1.117-2.233 2.792-2.791 3.908-0.558 1.117-1.117 2.233-1.675 3.908-0.558 0.558-0.558 1.675-1.117 2.233-0.558 1.117-0.558 1.675-0.558 2.792 0.558 1.675-0.558 2.233-2.233 2.791-1.117 0-1.117 0-1.675 1.117 0 1.675 0.558 2.792 1.116 4.467 0.558 0.558 1.117 1.675 1.117 2.233 0 1.117 0.558 1.675 1.675 2.233 0.558 0.558 1.117 1.117 1.675 1.117 0.558 0 0.558 0.558 1.117 0.558 0.558 0.558 1.117 0 1.116-0.558 0.558-1.675 1.117-3.35 1.117-5.025 0.558-2.233 0.558-3.908 1.116-6.142 0.558-1.117 1.117-1.675 1.675-2.233 0 0 0.558 0 1.117 0v0.559c-0.558 2.792-1.675 6.141-2.233 8.933-0.558 1.117-0.558 2.233-1.117 3.349 0 0.558-0.558 1.117-1.116 1.117-1.117 0.558-2.233 1.117-3.35 1.117-0.558 0-1.117 0-1.675 0-1.117-0.558-2.233-1.675-3.35-2.234-0.558-0.558-1.117-1.117-1.675-1.674-0.558-1.117-1.117-2.233-1.675-3.35-0.558-1.117-1.117-1.675-2.233-2.234-0.558-0.558-1.117-0.558-1.675-1.116-1.117-1.117-2.233-1.675-3.908-1.675-0.558 0-1.675 0-2.234 0-0.558 0-1.675 0.558-2.233 1.116-1.117 0.558-1.675 0.558-2.791 0-2.792-1.117-5.583-0.558-8.375 0.559-1.117 0.558-2.233 1.117-3.35 1.116-2.792 0-5.025 0-7.816 0-2.792 0-5.025-0.558-7.817-1.116-1.117 0-2.233 0-3.35 0-2.233 0.558-2.792 2.233-2.233 4.466 0.558 2.233 1.117 5.025 1.117 7.258 0 1.675 0 3.35 0 5.025 0 1.117 0 1.675 0 2.792 0 1.675-0.558 3.35-0.559 5.025-0.558 3.35-2.233 6.141-4.466 8.374-1.675 1.675-3.908 3.35-6.142 3.908-1.117 0.558-2.233 1.117-3.908 1.675-2.792 1.117-5.025 3.35-6.7 6.142-0.558 1.117-1.117 2.233-1.674 3.35-1.117 1.675-1.675 2.792-2.792 4.466-0.558 1.117-1.675 2.233-2.233 3.35-0.558 1.117-1.675 1.675-1.675 2.792-1.117 2.233-1.675 4.467-2.792 6.699-0.558 1.117-0.558 2.792-1.116 3.909-1.117 2.233-1.117 4.467-1.117 7.258 0 0.558 0 1.117 0 2.233 0 2.792-0.558 6.141-0.558 8.933 0 2.792 0 5.583 0.558 8.375 0 1.117 0 2.792 0 3.908 0 2.233 0.558 5.025 0.558 7.258 0 2.233 0 5.025 1.117 7.258v0.558c0.558 2.233 0.558 4.467 1.116 6.7 0 0.558 0 1.117 0.559 1.675 1.117 3.35 1.675 6.141 2.791 9.491 0.558 2.233 1.675 4.467 2.234 6.7 0.558 2.233 2.792 4.467 3.349 7.258v0c1.675 3.35 3.35 6.7 5.584 10.05 0.558 1.117 1.675 2.233 2.233 3.35 1.117 1.675 1.675 3.35 2.791 4.466 0.558 1.117 1.675 2.233 2.234 2.792 0.558 1.117 1.117 2.233 2.233 3.35 1.117 1.117 2.233 2.792 3.35 3.908 1.675 2.792 3.908 5.025 6.141 6.7 1.117 1.117 2.233 1.675 3.35 2.791 0.558 0.558 1.117 0.558 1.117 1.117 0.558 0.558 1.117 1.117 2.233 1.675 4.467 2.233 7.816 5.583 11.725 8.933 1.675 1.675 3.35 3.35 5.583 4.466 2.233 1.675 3.908 3.35 6.7 3.908 0 0 0.558 0 0.558 0.559 1.117 1.117 2.792 1.675 3.908 2.233 2.233 1.117 5.025 2.233 7.258 3.35 0.558 0.558 1.675 0.558 2.233 1.117 1.675 0.558 3.35 1.117 5.025 1.674 1.675 0.558 2.792 1.117 4.467 1.117h0.558c1.117 0.558 1.675 0.558 2.792 0 0.558 0 1.117 0 1.116 0.558 0 0.558 0.558 0.558 1.117 0.559 0.558 0 1.117 0 2.233 0 0.558-0.558 0.558-1.117 1.117-2.234 0.558 0.558 1.117 0.558 1.116 0.559 0.558 1.117 1.675 1.117 2.792 1.116h0.558c1.117 0 1.675 0 2.233-0.558 0-0.558 1.117-0.558 1.675-0.558 1.675 0.558 3.35 0.558 5.025 1.116 1.117 0.558 2.792 0.558 3.35-0.558 0.558-0.558 1.117-1.117 2.233-0.558 1.117 0.558 1.675 0.558 2.792 0 0.558 0 1.117 0 1.117 0 1.675 0.558 2.792 0.558 4.466 1.116 2.233 0.558 2.233 0.558 3.908-1.116 0.558-0.558 1.675-0.558 2.233 0 0.558 1.117 0.558 1.675 0.559 2.791 0.558 0 0.558 0 1.116-0.558 0-1.117 0.558-1.117 1.675-1.675 0.558 0.558 0.558 0.558 1.117 0.558 1.117 1.117 1.675 1.117 2.233-0.558 0-0.558 0-1.117 0.559-1.116 0.558 0 1.117 0.558 1.116 0.558 0.558 1.117 1.675 1.675 2.233 2.791 1.117 1.117 2.792 1.117 3.35 0 0.558-0.558 1.117-0.558 1.675-0.558 0-0.558 0-1.117 0-1.675 1.675 1.117 1.117 1.117 0.559 1.117zM89.417 34.559c1.675 0.558 2.792 0.558 3.349-0.558-1.117 0.558-2.233-0.558-3.349 0.558z" fill="#000000" fill-rule="nonzero" stroke="none" stroke-width="1" stroke-linecap="butt" stroke-linejoin="miter" stroke-miterlimit="10" stroke-dasharray="" stroke-dashoffset="0" font-family="none" font-weight="none" font-size="none" text-anchor="none" style="mix-blend-mode: normal" data-fill-palette-color="tertiary"></path></g><g transform="matrix(1,0,0,1,64,148.59058674157484)"><svg viewBox="0 0 192 62.818826516850294" height="62.818826516850294" width="192"><g><svg viewBox="0 0 229.28375331691646 75.01737668097746" height="62.818826516850294" width="192"><g transform="matrix(1,0,0,1,37.28375331691645,0)"><svg viewBox="0 0 192 75.01737668097746" height="75.01737668097746" width="192"><g id="textblocktransform"><svg viewBox="0 0 192 75.01737668097746" height="75.01737668097746" width="192" id="textblock"><g><svg viewBox="0 0 192 59.39282944412608" height="59.39282944412608" width="192"><path d="M191.55 12.739C190.648 6.574 188.075 4.86 188.075 4.86 180.177-1.49 170.321-0.121 161.466 0.791 145.832 0.828 130.262 2.184 114.664 2.912 81.926 3.023 48.907 1.198 16.331 5.698 13.271 7.079-3.175 5.97 0.544 13.528 1.519 16.672 5.076 20.161 4.967 23.046 5.455 23.552 6.132 22.393 6.42 23.12 7.431 25.081 9.083 24.156 10.437 25.315 8.551 28.41 9.905 30.987 11.195 33.687 8.921 34.39 6.005 34.057 4.696 36.387 4.561 38.077 3.83 37.756 3.027 37.682 2.44 37.633 1.257 37.818 1.456 38.348 2.133 40.16-0.774 41.208 1.05 42.984-0.205 44.907 1.916 46.572 1.627 48.656 1.591 49.075 1.79 49.432 2.106 49.531 3.505 50.061 1.465 51.097 1.682 52.219 16.033 59.888 31.604 54.586 46.308 58.113 50.126 55.647 47.256 58.988 48.781 58.47 49.972 57.866 50.839 60.369 52.184 58.951 52.392 58.544 52.076 57.583 52.816 57.767 53.204 57.866 53.547 57.841 53.601 57.274 53.682 56.423 52.969 56.954 52.78 56.51 54.829 54.266 54.323 59.605 56.246 59.383 56.156 58.729 55.596 57.792 56.742 57.915 57.88 56.978 57.916 56.202 58.927 58.31 58.963 58.766 59.143 59.087 59.432 59.309 62.591 57.015 65.732 60.122 69.045 59.087 71.076 57.952 73.026 59.703 75.084 59.272 75.806 58.926 76.537 58.31 77.232 59.346 85.744 59.568 94.815 58.643 102.885 59.383 124.449 58.002 147.493 59.95 170.23 58.125 175.592 57.422 181.161 56.423 186.387 55.622 186.387 55.622 190.621 53.427 190.621 43.563S191.523 34.932 191.659 27.078C191.794 19.224 192.426 18.904 191.523 12.739Z" opacity="1" fill="#000000" data-fill-palette-color="tertiary"></path><g transform="matrix(1,0,0,1,27.072000000000003,18.981962000000003)"><svg width="137.856" viewBox="5.760000228881836 -41.88999938964844 272.6399841308594 42.380001068115234" height="21.428905444126073" data-palette-color="#ffffff"><path d="M5.76 0L5.76-37.23Q13.7-37.84 19.09-37.84L19.09-37.84 19.58-37.84Q25.46-37.84 27.83-35.21L27.83-35.21Q29.81-32.93 29.81-27.78L29.81-27.78Q29.81-21.19 27.93-17.97L27.93-17.97Q26-14.7 21.53-13.87L21.53-13.87Q22.36-12.84 23.17-11.72L23.17-11.72 24.61-9.64 31.03 0 26.15 0 20.53-8.84Q18.19-12.4 17.07-13.55L17.07-13.55 16.8-13.55Q15.06-13.57 13.45-13.62L13.45-13.62 9.91-13.77 9.91 0 5.76 0ZM9.91-34.13L9.91-17.07Q12.48-16.94 17.97-16.94L17.97-16.94Q22.49-16.94 24.12-19.48L24.12-19.48Q25.51-21.7 25.51-27.25L25.51-27.25Q25.51-31.91 23.44-33.35L23.44-33.35Q22.22-34.2 20.76-34.3 19.31-34.4 18.23-34.4 17.14-34.4 16.13-34.39 15.11-34.38 14.11-34.35 13.11-34.33 12.08-34.28L12.08-34.28 9.91-34.13ZM37.94-14.45L37.94-14.45Q37.94-20 38.5-22.19 39.06-24.39 39.88-25.67 40.7-26.95 42.09-27.81L42.09-27.81Q44.87-29.54 50.31-29.54L50.31-29.54Q58.18-29.54 60.42-25.66L60.42-25.66Q61.77-23.32 61.96-19.04L61.96-19.04Q62.03-17.02 62.03-14.58 62.03-12.13 61.87-10.02 61.72-7.91 61.25-6.23 60.79-4.54 59.96-3.28 59.13-2.03 57.76-1.17L57.76-1.17Q55.08 0.49 49.92 0.49L49.92 0.49Q42.21 0.49 39.79-3.32L39.79-3.32Q38.3-5.69 38.06-9.96L38.06-9.96Q37.94-12.01 37.94-14.45ZM44.58-4.27Q45.46-3.61 46.79-3.28 48.12-2.95 50.42-2.95 52.73-2.95 54.31-3.61 55.88-4.27 56.67-5.73 57.47-7.18 57.68-9.5 57.88-11.82 57.88-14.89 57.88-17.97 57.7-20.02 57.52-22.07 56.78-23.41L56.78-23.41Q55.32-26.05 50.27-26.05L50.27-26.05Q44.92-26.05 43.31-23.41L43.31-23.41Q42.5-22.07 42.28-20 42.06-17.92 42.06-15.48 42.06-13.04 42.12-11.34 42.19-9.64 42.44-8.29 42.7-6.93 43.2-5.93 43.7-4.93 44.58-4.27ZM77.51 0L67.45-37.35 71.94-37.35 79.17-9.13 80.44-3.17 81.86-9.13 89.37-37.35 94.23-37.35 103.19-2.98 104.49-9.23 111.37-37.35 115.77-37.35 106.2 0 100 0 92.84-26.71 91.74-33.01 90.6-26.71 83.22 0 77.51 0ZM144.21-19.41L144.21-10.3Q144.21-5.44 144.67-0.2L144.67-0.2 141.06 0.1 140.45-3.3Q137.35-0.81 132.24 0.17L132.24 0.17Q130.58 0.49 129.29 0.49 128 0.49 127.01 0.37 126.02 0.24 125.1-0.11 124.19-0.46 123.41-1.1 122.62-1.73 122.04-2.78L122.04-2.78Q120.79-5 120.79-8.12 120.79-11.23 121.24-12.95 121.7-14.67 122.75-15.82L122.75-15.82Q124.82-18.09 129.73-18.09 134.64-18.09 140.2-16.24L140.2-16.24 140.2-19.41Q140.2-24.71 135.83-25.68L135.83-25.68Q134.42-26 132.59-26L132.59-26Q128.41-26 123.92-24.34L123.92-24.34 123.01-27.86Q124.26-28.69 129.36-29.35L129.36-29.35Q130.97-29.54 133.23-29.54 135.49-29.54 137.66-29 139.84-28.47 141.28-27.25L141.28-27.25Q144.21-24.83 144.21-19.41L144.21-19.41ZM140.1-13.18L140.1-13.18Q134.39-14.62 129.56-14.62L129.56-14.62Q126.58-14.62 125.6-12.92L125.6-12.92Q124.94-11.72 124.94-9.38 124.94-7.03 125.2-5.98 125.46-4.93 126.04-4.25L126.04-4.25Q127.19-2.95 129.83-2.95L129.83-2.95Q133.95-2.95 138.01-5.08L138.01-5.08Q139.25-5.71 140.25-6.49L140.25-6.49Q140.1-9.13 140.1-13.18ZM165.69-25.51L165.69-25.51Q162.56-25.51 159.32-22.39L159.32-22.39 159.32 0 155.26 0 155.26-29.05 158.83-29.05 159.22-25.2Q160.37-26.98 161.7-27.98 163.03-28.98 163.88-29.2L163.88-29.2Q165.1-29.54 166.2-29.54 167.3-29.54 168.96-29.1L168.96-29.1 168.59-25.22Q167.35-25.51 165.69-25.51ZM177.04 0L176.99-41.5 181.02-41.85 181.02 0 177.04 0ZM191.93-14.45L191.93-14.45Q191.93-20 192.49-22.19 193.05-24.39 193.87-25.67 194.69-26.95 196.08-27.81L196.08-27.81Q198.86-29.54 204.31-29.54L204.31-29.54Q212.17-29.54 214.41-25.66L214.41-25.66Q215.76-23.32 215.95-19.04L215.95-19.04Q216.03-17.02 216.03-14.58 216.03-12.13 215.87-10.02 215.71-7.91 215.24-6.23 214.78-4.54 213.95-3.28 213.12-2.03 211.75-1.17L211.75-1.17Q209.07 0.49 203.92 0.49L203.92 0.49Q196.2 0.49 193.78-3.32L193.78-3.32Q192.29-5.69 192.05-9.96L192.05-9.96Q191.93-12.01 191.93-14.45ZM198.57-4.27Q199.45-3.61 200.78-3.28 202.11-2.95 204.42-2.95 206.72-2.95 208.3-3.61 209.87-4.27 210.67-5.73 211.46-7.18 211.67-9.5 211.87-11.82 211.87-14.89 211.87-17.97 211.69-20.02 211.51-22.07 210.78-23.41L210.78-23.41Q209.31-26.05 204.26-26.05L204.26-26.05Q198.91-26.05 197.3-23.41L197.3-23.41Q196.49-22.07 196.27-20 196.05-17.92 196.05-15.48 196.05-13.04 196.12-11.34 196.18-9.64 196.43-8.29 196.69-6.93 197.19-5.93 197.69-4.93 198.57-4.27ZM245.03-4.59L246.25-1.29Q242.85 0.49 236.95 0.49L236.95 0.49Q233.45 0.49 231.82-0.05L231.82-0.05Q227.64-1.46 226.35-4.86L226.35-4.86Q225.45-7.23 225.3-9.96 225.15-12.7 225.15-14.58 225.15-16.46 225.25-18.25 225.35-20.04 225.73-21.7 226.11-23.36 226.89-24.79 227.67-26.22 229.01-27.29L229.01-27.29Q231.92-29.54 237.36-29.54L237.36-29.54Q241.36-29.54 244.73-28.37L244.73-28.37Q245.64-28.08 246.1-27.81L246.1-27.81 244.88-24.19Q240.19-26 237.2-26 234.21-26 232.81-25.32 231.4-24.63 230.62-23.24L230.62-23.24Q229.3-20.85 229.3-14.45L229.3-14.45Q229.3-11.89 229.47-9.78 229.65-7.67 230.33-6.15L230.33-6.15Q231.77-3.03 236.27-3.03 240.78-3.03 245.03-4.59L245.03-4.59ZM255.18 0L255.18-41.46 259.23-41.89 259.23-16.7Q260.21-16.5 261.59-17.7 262.97-18.9 264.04-19.98 265.12-21.07 266.26-22.36L266.26-22.36Q270.39-27.12 271.68-29.05L271.68-29.05 276.52-29.05Q275.98-27.83 274.05-25.59L274.05-25.59 270.78-21.9Q268.12-19.04 266.52-17.68 264.92-16.31 264.41-16.11L264.41-16.11 264.41-15.87 265.14-15.5Q266.73-14.75 269.29-11.47L269.29-11.47 278.4 0 273.27 0 267.07-8.13Q262.77-13.75 260.5-13.94L260.5-13.94 259.97-13.99Q259.72-14.01 259.53-14 259.33-13.99 259.23-13.99L259.23-13.99 259.23 0 255.18 0Z" opacity="1" transform="matrix(1,0,0,1,0,0)" fill="#ffffff" class="undefined-text-0" data-fill-palette-color="quaternary" id="text-0"></path></svg></g></svg></g><g transform="matrix(1,0,0,1,79.27680000000001,64.45167972575359)"><svg viewBox="0 0 112.72319999999999 10.56569695522388" height="10.56569695522388" width="112.72319999999999"><g transform="matrix(1,0,0,1,0,0)"><svg width="112.72319999999999" viewBox="1.75 -30.950000762939453 334.9700012207031 31.400001525878906" height="10.56569695522388" data-palette-color="#0080ff"><path d="M18.15 0L25.6 0 25.6-3.95 21.8-3.95 21.8-18.75 18.35-18.75Q18.35-18.15 18.28-17.53 18.2-16.9 18.15-16.4L18.15-16.4Q17.75-17.25 16.15-18.23 14.55-19.2 11.8-19.2L11.8-19.2Q9.7-19.2 7.85-18.4 6-17.6 4.65-16.25L4.65-16.25Q3.3-14.9 2.53-13.1 1.75-11.3 1.75-9.35L1.75-9.35Q1.75-7.35 2.53-5.58 3.3-3.8 4.65-2.45L4.65-2.45Q6-1.1 7.85-0.33 9.7 0.45 11.8 0.45L11.8 0.45Q13.25 0.45 14.4 0.13 15.55-0.2 16.4-0.65L16.4-0.65Q17.2-1.05 17.65-1.45 18.1-1.85 18.15-2L18.15-2Q18.15-1.65 18.15-1.5 18.15-1.35 18.15-1L18.15-1 18.15 0ZM11.8-15.15L11.8-15.15Q13.05-15.15 14.08-14.75 15.1-14.35 15.9-13.65L15.9-13.65Q16.7-12.9 17.18-11.8 17.65-10.7 17.65-9.4L17.65-9.4Q17.65-8.1 17.18-7 16.7-5.9 15.85-5.1L15.85-5.1Q15.1-4.4 14.08-4 13.05-3.6 11.8-3.6L11.8-3.6Q10.7-3.6 9.75-3.93 8.8-4.25 8.1-4.8L8.1-4.8Q7.1-5.6 6.53-6.8 5.95-8 5.95-9.4L5.95-9.4Q5.95-10.6 6.33-11.6 6.7-12.6 7.4-13.35L7.4-13.35Q8.15-14.2 9.3-14.68 10.45-15.15 11.8-15.15ZM47-4.8L47-4.8 46.85-2.55 46.85 0 54.1 0 54.1-3.5 51-3.5 51-18.75 43.55-18.75 43.55-14.8 46.85-14.8 46.85-9.65Q46.85-8.35 46.3-7.25 45.75-6.15 44.85-5.35L44.85-5.35Q43.95-4.55 42.77-4.1 41.6-3.65 40.3-3.65L40.3-3.65Q38.4-3.75 37.52-4.73 36.65-5.7 36.55-7.05L36.55-7.05 36.55-18.75 29.1-18.75 29.1-14.8 32.4-14.8 32.4-5.15Q32.5-2.65 34.2-1.1 35.9 0.45 38.85 0.45L38.85 0.45Q41.55 0.45 43.77-0.98 46-2.4 47-4.8ZM61.8 0L69.69 0 69.69-3.95 65.94-3.95 65.94-14.7 70.84-14.7 70.84-18.75 65.94-18.75 65.94-30.95 61.8-30.95 61.8-18.75 57.59-18.75 57.59-14.7 61.8-14.7 61.8 0ZM91.49-2.45L91.49-2.45Q92.84-3.8 93.62-5.58 94.39-7.35 94.39-9.4L94.39-9.4Q94.39-11.4 93.62-13.2 92.84-15 91.49-16.35L91.49-16.35Q90.14-17.65 88.29-18.43 86.44-19.2 84.34-19.2L84.34-19.2Q82.24-19.2 80.42-18.43 78.59-17.65 77.24-16.35L77.24-16.35Q75.89-15 75.12-13.2 74.34-11.4 74.34-9.4L74.34-9.4Q74.34-7.35 75.12-5.58 75.89-3.8 77.24-2.45L77.24-2.45Q78.59-1.1 80.42-0.33 82.24 0.45 84.34 0.45L84.34 0.45Q86.44 0.45 88.29-0.33 90.14-1.1 91.49-2.45ZM80.19-5.3L80.19-5.3Q79.39-6.05 78.94-7.1 78.49-8.15 78.49-9.35L78.49-9.35Q78.49-10.55 78.94-11.6 79.39-12.65 80.19-13.45L80.19-13.45Q80.94-14.25 81.99-14.7 83.04-15.15 84.24-15.15L84.24-15.15Q85.44-15.15 86.49-14.7 87.54-14.25 88.34-13.45L88.34-13.45Q89.14-12.65 89.59-11.6 90.04-10.55 90.04-9.35L90.04-9.35Q90.04-8.15 89.59-7.1 89.14-6.05 88.34-5.3L88.34-5.3Q87.54-4.5 86.49-4.05 85.44-3.6 84.24-3.6L84.24-3.6Q83.04-3.6 81.99-4.05 80.94-4.5 80.19-5.3ZM97.89 0L108.99 0 108.99-3.95 105.84-3.95 105.84-9.1Q105.84-10.4 106.39-11.5 106.94-12.6 107.84-13.4L107.84-13.4Q108.74-14.2 109.92-14.65 111.09-15.1 112.39-15.1L112.39-15.1Q114.29-15 115.17-14.03 116.04-13.05 116.14-11.7L116.14-11.7 116.14-3.95 112.34-3.95 112.34 0 123.44 0 123.44-3.95 120.29-3.95 120.29-9.1Q120.29-10.4 120.84-11.5 121.39-12.6 122.29-13.4L122.29-13.4Q123.19-14.2 124.37-14.65 125.54-15.1 126.84-15.1L126.84-15.1Q128.74-15 129.62-14.03 130.49-13.05 130.59-11.7L130.59-11.7 130.59-3.95 126.79-3.95 126.79 0 137.89 0 137.89-3.95 134.74-3.95 134.74-13.6Q134.64-16.1 132.94-17.65 131.24-19.2 128.29-19.2L128.29-19.2Q125.54-19.1 123.44-17.8 121.34-16.5 120.24-14.2L120.24-14.2Q119.94-16.45 118.27-17.82 116.59-19.2 113.84-19.2L113.84-19.2Q110.99-19.1 108.87-17.73 106.74-16.35 105.69-13.95L105.69-13.95Q105.59-15.15 105.52-16.13 105.44-17.1 105.34-18.3L105.34-18.3 105.34-18.75 98.39-18.75 98.39-14.8 101.69-14.8 101.69-3.95 97.89-3.95 97.89 0ZM157.79 0L165.24 0 165.24-3.95 161.44-3.95 161.44-18.75 157.99-18.75Q157.99-18.15 157.91-17.53 157.84-16.9 157.79-16.4L157.79-16.4Q157.39-17.25 155.79-18.23 154.19-19.2 151.44-19.2L151.44-19.2Q149.34-19.2 147.49-18.4 145.64-17.6 144.29-16.25L144.29-16.25Q142.94-14.9 142.16-13.1 141.39-11.3 141.39-9.35L141.39-9.35Q141.39-7.35 142.16-5.58 142.94-3.8 144.29-2.45L144.29-2.45Q145.64-1.1 147.49-0.33 149.34 0.45 151.44 0.45L151.44 0.45Q152.89 0.45 154.04 0.13 155.19-0.2 156.04-0.65L156.04-0.65Q156.84-1.05 157.29-1.45 157.74-1.85 157.79-2L157.79-2Q157.79-1.65 157.79-1.5 157.79-1.35 157.79-1L157.79-1 157.79 0ZM151.44-15.15L151.44-15.15Q152.69-15.15 153.71-14.75 154.74-14.35 155.54-13.65L155.54-13.65Q156.34-12.9 156.81-11.8 157.29-10.7 157.29-9.4L157.29-9.4Q157.29-8.1 156.81-7 156.34-5.9 155.49-5.1L155.49-5.1Q154.74-4.4 153.71-4 152.69-3.6 151.44-3.6L151.44-3.6Q150.34-3.6 149.39-3.93 148.44-4.25 147.74-4.8L147.74-4.8Q146.74-5.6 146.16-6.8 145.59-8 145.59-9.4L145.59-9.4Q145.59-10.6 145.96-11.6 146.34-12.6 147.04-13.35L147.04-13.35Q147.79-14.2 148.94-14.68 150.09-15.15 151.44-15.15ZM172.93 0L180.83 0 180.83-3.95 177.08-3.95 177.08-14.7 181.98-14.7 181.98-18.75 177.08-18.75 177.08-30.95 172.93-30.95 172.93-18.75 168.73-18.75 168.73-14.7 172.93-14.7 172.93 0ZM185.48 0L196.58 0 196.58-3.95 193.13-3.95 193.13-18.75 185.48-18.75 185.48-14.8 188.98-14.8 188.98-3.95 185.48-3.95 185.48 0ZM193.68-26L193.68-26Q193.68-27.15 192.88-27.9 192.08-28.65 191.13-28.65L191.13-28.65Q190.13-28.65 189.33-27.9 188.53-27.15 188.53-26L188.53-26Q188.53-24.85 189.33-24.13 190.13-23.4 191.13-23.4L191.13-23.4Q192.08-23.4 192.88-24.13 193.68-24.85 193.68-26ZM217.23-2.45L217.23-2.45Q218.58-3.8 219.35-5.58 220.13-7.35 220.13-9.4L220.13-9.4Q220.13-11.4 219.35-13.2 218.58-15 217.23-16.35L217.23-16.35Q215.88-17.65 214.03-18.43 212.18-19.2 210.08-19.2L210.08-19.2Q207.98-19.2 206.15-18.43 204.33-17.65 202.98-16.35L202.98-16.35Q201.63-15 200.85-13.2 200.08-11.4 200.08-9.4L200.08-9.4Q200.08-7.35 200.85-5.58 201.63-3.8 202.98-2.45L202.98-2.45Q204.33-1.1 206.15-0.33 207.98 0.45 210.08 0.45L210.08 0.45Q212.18 0.45 214.03-0.33 215.88-1.1 217.23-2.45ZM205.93-5.3L205.93-5.3Q205.13-6.05 204.68-7.1 204.23-8.15 204.23-9.35L204.23-9.35Q204.23-10.55 204.68-11.6 205.13-12.65 205.93-13.45L205.93-13.45Q206.68-14.25 207.73-14.7 208.78-15.15 209.98-15.15L209.98-15.15Q211.18-15.15 212.23-14.7 213.28-14.25 214.08-13.45L214.08-13.45Q214.88-12.65 215.33-11.6 215.78-10.55 215.78-9.35L215.78-9.35Q215.78-8.15 215.33-7.1 214.88-6.05 214.08-5.3L214.08-5.3Q213.28-4.5 212.23-4.05 211.18-3.6 209.98-3.6L209.98-3.6Q208.78-3.6 207.73-4.05 206.68-4.5 205.93-5.3ZM223.63 0L234.73 0 234.73-3.95 231.58-3.95 231.58-9.1Q231.58-10.4 232.13-11.5 232.68-12.6 233.58-13.4L233.58-13.4Q234.48-14.2 235.65-14.65 236.83-15.1 238.13-15.1L238.13-15.1Q240.03-15 240.9-14.03 241.78-13.05 241.88-11.7L241.88-11.7 241.88-3.95 238.03-3.95 238.03 0 249.13 0 249.13-3.95 246.03-3.95 246.03-13.6Q245.93-16.1 244.23-17.65 242.53-19.2 239.58-19.2L239.58-19.2Q236.88-19.2 234.65-17.78 232.43-16.35 231.43-13.95L231.43-13.95Q231.33-15.15 231.25-16.13 231.18-17.1 231.08-18.3L231.08-18.3 231.08-18.75 224.13-18.75 224.13-14.8 227.43-14.8 227.43-3.95 223.63-3.95 223.63 0ZM271.82 0L279.72 0 279.72-3.95 275.97-3.95 275.97-14.7 280.87-14.7 280.87-18.75 275.97-18.75 275.97-30.95 271.82-30.95 271.82-18.75 267.62-18.75 267.62-14.7 271.82-14.7 271.82 0ZM294.37-15.15L294.37-15.15Q295.42-15.15 296.3-14.63 297.17-14.1 297.87-13.25L297.87-13.25Q295.52-12.4 293.19-11.53 290.87-10.65 288.52-9.8L288.52-9.8Q288.57-10.85 288.94-11.75 289.32-12.65 289.92-13.35L289.92-13.35Q290.72-14.2 291.85-14.68 292.97-15.15 294.37-15.15ZM300.72-2.2L300.72-2.2 298.17-5.2Q297.42-4.4 296.47-4 295.52-3.6 294.37-3.6L294.37-3.6Q292.82-3.6 291.6-4.23 290.37-4.85 289.62-5.9L289.62-5.9Q293.02-7.15 296.39-8.4 299.77-9.65 303.17-10.9L303.17-10.9Q302.72-12.7 301.87-14.23 301.02-15.75 299.92-16.85L299.92-16.85Q298.77-17.95 297.35-18.57 295.92-19.2 294.37-19.2L294.37-19.2Q292.27-19.2 290.44-18.43 288.62-17.65 287.27-16.35L287.27-16.35Q285.92-15 285.14-13.2 284.37-11.4 284.37-9.4L284.37-9.4Q284.37-7.35 285.14-5.58 285.92-3.8 287.27-2.45L287.27-2.45Q288.62-1.1 290.44-0.33 292.27 0.45 294.37 0.45L294.37 0.45Q296.27 0.45 297.87-0.25 299.47-0.95 300.72-2.2ZM318.92-1.85L318.92-1.85Q319.62-2.8 319.89-3.8 320.17-4.8 320.17-5.5L320.17-5.5Q320.17-7.05 319.62-8.08 319.07-9.1 318.22-9.8L318.22-9.8Q317.37-10.45 316.37-10.9 315.37-11.35 314.52-11.7L314.52-11.7Q313.62-12.05 312.97-12.43 312.32-12.8 312.22-13.4L312.22-13.4Q312.17-13.8 312.27-14.13 312.37-14.45 312.62-14.7L312.62-14.7Q312.87-14.9 313.27-15.03 313.67-15.15 314.22-15.15L314.22-15.15Q314.62-15.15 314.97-15.08 315.32-15 315.72-14.9L315.72-14.9 315.72-12.75 319.42-12.75 319.42-17.1Q318.87-17.7 318.14-18.1 317.42-18.5 316.67-18.75L316.67-18.75Q315.92-19 315.19-19.1 314.47-19.2 313.97-19.2L313.97-19.2Q313.12-19.2 312.07-18.9 311.02-18.6 310.12-17.9L310.12-17.9Q309.22-17.25 308.62-16.2 308.02-15.15 308.02-13.6L308.02-13.6Q308.02-11.85 308.62-10.8 309.22-9.75 310.12-9.2L310.12-9.2Q311.07-8.6 312.12-8.28 313.17-7.95 314.02-7.6L314.02-7.6Q314.92-7.3 315.44-6.83 315.97-6.35 315.97-5.45L315.97-5.45Q315.97-4.95 315.79-4.63 315.62-4.3 315.37-4.1L315.37-4.1Q315.02-3.85 314.59-3.75 314.17-3.65 313.77-3.65L313.77-3.65Q312.92-3.65 312.34-3.73 311.77-3.8 311.17-4.05L311.17-4.05 311.17-6 307.47-6 307.47-1.65Q308.47-0.55 310.17-0.08 311.87 0.4 313.72 0.4L313.72 0.4Q315.72 0.4 316.97-0.25 318.22-0.9 318.92-1.85ZM327.67 0L335.57 0 335.57-3.95 331.82-3.95 331.82-14.7 336.72-14.7 336.72-18.75 331.82-18.75 331.82-30.95 327.67-30.95 327.67-18.75 323.47-18.75 323.47-14.7 327.67-14.7 327.67 0Z" opacity="1" transform="matrix(1,0,0,1,0,0)" fill="#000000" class="undefined-text-1" data-fill-palette-color="secondary" id="text-1"></path></svg></g></svg></g></svg></g></svg></g><g transform="matrix(1,0,0,1,0,20.22968591163692)"><svg viewBox="0 0 32.224903035288946 34.55800485770362" height="34.55800485770362" width="32.224903035288946"><g><svg xmlns="http://www.w3.org/2000/svg" data-name="Layer 1" viewBox="22.025373458862305 20 55.949249267578125 60.00000762939453" x="0" y="0" height="34.55800485770362" width="32.224903035288946" class="icon-icon-0" data-fill-palette-color="accent" id="icon-0"><path d="M61 50.25V28h1a4 4 0 0 0 0-8H38a4 4 0 0 0 0 8h1V50.25L22.82 73.17A4.33 4.33 0 0 0 26.36 80H73.64a4.33 4.33 0 0 0 3.54-6.83ZM53 45H47V28h6Z" fill="#000000" data-fill-palette-color="accent"></path></svg></g></svg></g></svg></g></svg></g></svg></g><defs></defs></svg><rect width="320" height="360" fill="none" stroke="none" visibility="hidden"></rect></g></svg></g></svg>